# xmcd
#
# Track frame offsets:
#	150
#	12789
#	25716
#	36199
#	45933
#	56734
#	66610
#	79672
#	94628
#	106433
#	116883
#	126502
#	135990
#	147152
#	156651
#	166970
#	178267
#	191366
#	205872
#	219393
#	232309
#
# Disc length: 3221 seconds
#
# Revision: 1
# Processed by: cddbd v1.5.2PL0 Copyright (c) Steve Scherf et al.
# Submitted via: audiograbber 1.83.01
#
DISCID=310c9315
DTITLE=Various Artist - 125 Country Hits CD 3
DYEAR=1900
DGENRE=Country
TTITLE0=DAVID HOUSTON - My Elusive Dreams
TTITLE1=LYNN ANDERSON - Rose Garden
TTITLE2=WAYLON JENNINGS - Lorene
TTITLE3=JOHNNY CASH - Rock Island Line
TTITLE4=WAYLON JENNINGS - Dream Baby
TTITLE5=SKEETER DAVIS - I Can't Stay Mad At You
TTITLE6=DONNA FARGO - Daddy
TTITLE7=KENNY ROGERS - For The Good Times
TTITLE8=BARBARA FAIRCHILD - You Can't Put The City In A Country Girl
TTITLE9=PATSY CLINE - Lovesick Blues
TTITLE10=FRANKIE LAINE - Gunfight At The 0 K Corral
TTITLE11=HANK LOCKLIN - Geisha Girl
TTITLE12=CONWAY TWITTY - Hello Darlin'
TTITLE13=GENE AUTRY - Tears On My Pillow
TTITLE14=FARON YOUNG - Live Fast, Love Hard, Die Young
TTITLE15=DAVE DUDLEY - Cowboy Boots
TTITLE16=HANK WILLIAMS - Jambalaya (On The Bayou)
TTITLE17=FREDDY FENDER - Since I Met You Baby
TTITLE18=LYNN ANDERSON - Keep Me In Mind
TTITLE19=HANK SNOW - I'm Moving On
TTITLE20=THE HARDEN TRIO - Tippytoeing
EXTD=
EXTT0=
EXTT1=
EXTT2=
EXTT3=
EXTT4=
EXTT5=
EXTT6=
EXTT7=
EXTT8=
EXTT9=
EXTT10=
EXTT11=
EXTT12=
EXTT13=
EXTT14=
EXTT15=
EXTT16=
EXTT17=
EXTT18=
EXTT19=
EXTT20=
PLAYORDER=
